<svg width="25" height="21" viewBox="0 0 25 21" fill="none" xmlns="http://www.w3.org/2000/svg">
<path d="M12.5 0C7.5 0 3.24219 3.71094 2.57812 8.63281C2.5 9.14062 2.85156 9.60938 3.35938 9.6875C3.90625 9.76562 4.375 9.41406 4.41406 8.90625C5 4.92188 8.4375 1.875 12.5 1.875C16.9531 1.875 20.625 5.54688 20.625 10C20.625 14.0625 17.5781 17.5 13.5938 18.0469C13.0859 18.125 12.7344 18.5938 12.8125 19.1406C12.8516 19.6094 13.2812 19.9219 13.7109 19.9219C13.7891 19.9219 13.8281 19.9219 13.8672 19.9219C18.7891 19.2578 22.5 15 22.5 10C22.5 4.49219 18.0078 0 12.5 0ZM14.5312 13.8672C14.1016 14.1406 13.9062 14.6875 14.1406 15.1562C14.3359 15.4688 14.6484 15.6641 15 15.6641C15.1172 15.6641 15.2734 15.625 15.4297 15.5469C17.4609 14.4531 18.75 12.3438 18.75 10C18.75 6.5625 15.9375 3.75 12.5 3.75C10.1562 3.75 8.04688 5.03906 6.95312 7.07031C6.71875 7.53906 6.875 8.08594 7.34375 8.35938C7.8125 8.59375 8.35938 8.39844 8.63281 7.96875C9.375 6.52344 10.8594 5.625 12.5 5.625C14.8828 5.625 16.875 7.61719 16.875 10C16.875 11.6406 15.9766 13.125 14.5312 13.8672ZM12.9297 9.57031C12.7734 9.41406 12.5391 9.375 12.3047 9.41406L3.55469 11.9141C3.32031 11.9922 3.125 12.2266 3.125 12.4609C3.08594 12.6953 3.24219 12.9688 3.47656 13.0469L6.40625 14.2969L2.85156 17.8516C2.34375 18.3203 2.34375 19.1406 2.85156 19.6094C3.32031 20.1172 4.14062 20.1172 4.60938 19.6094L8.16406 16.0547L9.41406 18.9844C9.49219 19.2578 9.72656 19.375 10 19.375C10 19.375 10 19.375 10.0391 19.375C10.2734 19.375 10.5078 19.1797 10.5859 18.9453L13.0859 10.1953C13.125 9.96094 13.0859 9.72656 12.9297 9.57031Z" fill="#2D3748"/>
</svg>
