<svg width="18" height="16" viewBox="0 0 18 16" fill="none" xmlns="http://www.w3.org/2000/svg">
<path d="M11.1875 4.5L7.59375 6.125C7.40625 6.21875 7.1875 6.4375 7.09375 6.625L5.46875 10.2188C5.09375 11.0625 5.9375 11.9062 6.78125 11.5312L10.375 9.90625C10.5625 9.8125 10.7812 9.59375 10.875 9.40625L12.5 5.8125C12.875 4.96875 12.0312 4.125 11.1875 4.5ZM9.6875 8.71875C9.3125 9.125 8.65625 9.125 8.28125 8.71875C7.875 8.34375 7.875 7.6875 8.28125 7.3125C8.65625 6.90625 9.3125 6.90625 9.6875 7.3125C10.0938 7.6875 10.0938 8.34375 9.6875 8.71875ZM9 0C4.5625 0 1 3.59375 1 8C1 12.4375 4.5625 16 9 16C13.4062 16 17 12.4375 17 8C17 3.59375 13.4062 0 9 0ZM9 14.5C5.40625 14.5 2.5 11.5938 2.5 8C2.5 4.4375 5.40625 1.5 9 1.5C12.5625 1.5 15.5 4.4375 15.5 8C15.5 11.5938 12.5625 14.5 9 14.5Z" fill="#3182CE"/>
</svg>
